<svg width="136" height="58" viewBox="0 0 136 58" fill="none" xmlns="http://www.w3.org/2000/svg">
<rect x="1" y="0.5" width="134" height="57" rx="11.5" stroke="url(#paint0_linear_0_7901)"/>
<path d="M18.8836 18.152H24.5156L30.8196 36.04H30.8836L37.0276 18.152H42.5956V41H38.7876V23.368H38.7236L32.3876 41H29.0916L22.7556 23.368H22.6916V41H18.8836V18.152ZM56.7331 31.272C56.6905 30.696 56.5625 30.1413 56.3491 29.608C56.1571 29.0747 55.8798 28.616 55.5171 28.232C55.1758 27.8267 54.7491 27.5067 54.2371 27.272C53.7465 27.016 53.1918 26.888 52.5731 26.888C51.9331 26.888 51.3465 27.0053 50.8131 27.24C50.3011 27.4533 49.8531 27.7627 49.4691 28.168C49.1065 28.552 48.8078 29.0107 48.5731 29.544C48.3598 30.0773 48.2425 30.6533 48.2211 31.272H56.7331ZM48.2211 33.672C48.2211 34.312 48.3065 34.9307 48.4771 35.528C48.6691 36.1253 48.9465 36.648 49.3091 37.096C49.6718 37.544 50.1305 37.9067 50.6851 38.184C51.2398 38.44 51.9011 38.568 52.6691 38.568C53.7358 38.568 54.5891 38.344 55.2291 37.896C55.8905 37.4267 56.3811 36.7333 56.7011 35.816H60.1571C59.9651 36.712 59.6345 37.512 59.1651 38.216C58.6958 38.92 58.1305 39.5173 57.4691 40.008C56.8078 40.4773 56.0611 40.8293 55.2291 41.064C54.4185 41.32 53.5651 41.448 52.6691 41.448C51.3678 41.448 50.2158 41.2347 49.2131 40.808C48.2105 40.3813 47.3571 39.784 46.6531 39.016C45.9705 38.248 45.4478 37.3307 45.0851 36.264C44.7438 35.1973 44.5731 34.024 44.5731 32.744C44.5731 31.5707 44.7545 30.4613 45.1171 29.416C45.5011 28.3493 46.0345 27.4213 46.7171 26.632C47.4211 25.8213 48.2638 25.1813 49.2451 24.712C50.2265 24.2427 51.3358 24.008 52.5731 24.008C53.8745 24.008 55.0371 24.2853 56.0611 24.84C57.1065 25.3733 57.9705 26.088 58.6531 26.984C59.3358 27.88 59.8265 28.9147 60.1251 30.088C60.4451 31.24 60.5305 32.4347 60.3811 33.672H48.2211ZM77.2384 41H73.7824V38.76H73.7184C73.2277 39.72 72.513 40.4133 71.5744 40.84C70.6357 41.2453 69.6437 41.448 68.5984 41.448C67.297 41.448 66.1557 41.224 65.1744 40.776C64.2144 40.3067 63.4144 39.6773 62.7744 38.888C62.1344 38.0987 61.6544 37.1707 61.3344 36.104C61.0144 35.016 60.8544 33.8533 60.8544 32.616C60.8544 31.1227 61.057 29.832 61.4624 28.744C61.8677 27.656 62.401 26.76 63.0624 26.056C63.745 25.352 64.513 24.84 65.3664 24.52C66.241 24.1787 67.1264 24.008 68.0224 24.008C68.5344 24.008 69.057 24.0613 69.5904 24.168C70.1237 24.2533 70.6357 24.4027 71.1264 24.616C71.617 24.8293 72.065 25.1067 72.4704 25.448C72.897 25.768 73.249 26.152 73.5264 26.6H73.5904V18.152H77.2384V41ZM64.5024 32.904C64.5024 33.608 64.5877 34.3013 64.7584 34.984C64.9504 35.6667 65.2277 36.2747 65.5904 36.808C65.9744 37.3413 66.4544 37.768 67.0304 38.088C67.6064 38.408 68.289 38.568 69.0784 38.568C69.889 38.568 70.5824 38.3973 71.1584 38.056C71.7557 37.7147 72.2357 37.2667 72.5984 36.712C72.9824 36.1573 73.2597 35.5387 73.4304 34.856C73.6224 34.152 73.7184 33.4373 73.7184 32.712C73.7184 30.8773 73.3024 29.448 72.4704 28.424C71.6597 27.4 70.5504 26.888 69.1424 26.888C68.289 26.888 67.5637 27.0693 66.9664 27.432C66.3904 27.7733 65.9104 28.232 65.5264 28.808C65.1637 29.3627 64.897 30.0027 64.7264 30.728C64.577 31.432 64.5024 32.1573 64.5024 32.904ZM79.8129 18.152H83.4609V21.608H79.8129V18.152ZM79.8129 24.456H83.4609V41H79.8129V24.456ZM99.7916 37.32C99.7916 37.768 99.845 38.088 99.9516 38.28C100.08 38.472 100.314 38.568 100.656 38.568C100.762 38.568 100.89 38.568 101.04 38.568C101.189 38.568 101.36 38.5467 101.552 38.504V41.032C101.424 41.0747 101.253 41.1173 101.04 41.16C100.848 41.224 100.645 41.2773 100.432 41.32C100.218 41.3627 100.005 41.3947 99.7916 41.416C99.5783 41.4373 99.397 41.448 99.2476 41.448C98.501 41.448 97.8823 41.2987 97.3916 41C96.901 40.7013 96.581 40.1787 96.4316 39.432C95.7063 40.136 94.8103 40.648 93.7436 40.968C92.6983 41.288 91.685 41.448 90.7036 41.448C89.957 41.448 89.2423 41.3413 88.5596 41.128C87.877 40.936 87.269 40.648 86.7356 40.264C86.2236 39.8587 85.8076 39.3573 85.4876 38.76C85.189 38.1413 85.0396 37.4267 85.0396 36.616C85.0396 35.592 85.221 34.76 85.5836 34.12C85.9676 33.48 86.4583 32.9787 87.0556 32.616C87.6743 32.2533 88.357 31.9973 89.1036 31.848C89.8716 31.6773 90.6396 31.5493 91.4076 31.464C92.069 31.336 92.6983 31.2507 93.2956 31.208C93.893 31.144 94.4156 31.048 94.8636 30.92C95.333 30.792 95.6956 30.6 95.9516 30.344C96.229 30.0667 96.3676 29.6613 96.3676 29.128C96.3676 28.6587 96.2503 28.2747 96.0156 27.976C95.8023 27.6773 95.525 27.4533 95.1836 27.304C94.8636 27.1333 94.501 27.0267 94.0956 26.984C93.6903 26.92 93.3063 26.888 92.9436 26.888C91.9196 26.888 91.077 27.1013 90.4156 27.528C89.7543 27.9547 89.381 28.616 89.2956 29.512H85.6476C85.7116 28.4453 85.9676 27.56 86.4156 26.856C86.8636 26.152 87.429 25.5867 88.1116 25.16C88.8156 24.7333 89.605 24.4347 90.4796 24.264C91.3543 24.0933 92.2503 24.008 93.1676 24.008C93.9783 24.008 94.7783 24.0933 95.5676 24.264C96.357 24.4347 97.061 24.712 97.6796 25.096C98.3196 25.48 98.8316 25.9813 99.2156 26.6C99.5996 27.1973 99.7916 27.9333 99.7916 28.808V37.32ZM96.1436 32.712C95.589 33.0747 94.9063 33.2987 94.0956 33.384C93.285 33.448 92.4743 33.5547 91.6636 33.704C91.2796 33.768 90.9063 33.864 90.5436 33.992C90.181 34.0987 89.861 34.2587 89.5836 34.472C89.3063 34.664 89.0823 34.9307 88.9116 35.272C88.7623 35.592 88.6876 35.9867 88.6876 36.456C88.6876 36.8613 88.805 37.2027 89.0396 37.48C89.2743 37.7573 89.5516 37.9813 89.8716 38.152C90.213 38.3013 90.5756 38.408 90.9596 38.472C91.365 38.536 91.7276 38.568 92.0476 38.568C92.453 38.568 92.8903 38.5147 93.3596 38.408C93.829 38.3013 94.2663 38.12 94.6716 37.864C95.0983 37.608 95.4503 37.288 95.7276 36.904C96.005 36.4987 96.1436 36.008 96.1436 35.432V32.712ZM108.265 24.808H111.529V31.272H117.961V34.536H111.529V41H108.265V34.536H101.833V31.272H108.265V24.808Z" fill="#E4875D"/>
<defs>
<linearGradient id="paint0_linear_0_7901" x1="23.9968" y1="-8" x2="81.5531" y2="55.6132" gradientUnits="userSpaceOnUse">
<stop stop-color="#E4875D"/>
<stop offset="1" stop-color="white"/>
</linearGradient>
</defs>
</svg>
