<svg width="24" height="25" viewBox="0 0 24 25" fill="none" xmlns="http://www.w3.org/2000/svg">
<path d="M21.375 12.6699C21.375 12.9683 21.2565 13.2544 21.0455 13.4654C20.8345 13.6764 20.5484 13.7949 20.25 13.7949H13.125V20.9199C13.125 21.2183 13.0065 21.5044 12.7955 21.7154C12.5845 21.9264 12.2984 22.0449 12 22.0449C11.7016 22.0449 11.4155 21.9264 11.2045 21.7154C10.9935 21.5044 10.875 21.2183 10.875 20.9199V13.7949H3.75C3.45163 13.7949 3.16548 13.6764 2.9545 13.4654C2.74353 13.2544 2.625 12.9683 2.625 12.6699C2.625 12.3716 2.74353 12.0854 2.9545 11.8744C3.16548 11.6634 3.45163 11.5449 3.75 11.5449H10.875V4.41992C10.875 4.12155 10.9935 3.83541 11.2045 3.62443C11.4155 3.41345 11.7016 3.29492 12 3.29492C12.2984 3.29492 12.5845 3.41345 12.7955 3.62443C13.0065 3.83541 13.125 4.12155 13.125 4.41992V11.5449H20.25C20.5484 11.5449 20.8345 11.6634 21.0455 11.8744C21.2565 12.0854 21.375 12.3716 21.375 12.6699Z" fill="#5F6585"/>
</svg>
